ISO-10303-21;
HEADER;
FILE_DESCRIPTION(('Open CASCADE Model'),'2;1');
FILE_NAME('Open CASCADE Shape Model','2026-09-13T17:51:53',('Author'),(
    'Open CASCADE'),'Open CASCADE STEP processor 7.9','build123d',
  'Unknown');
FILE_SCHEMA(('AUTOMOTIVE_DESIGN { 1 0 10303 214 1 1 1 1 }'));
ENDSEC;
DATA;
#1 = APPLICATION_PROTOCOL_DEFINITION('international standard',
  'automotive_design',2000,#2);
#2 = APPLICATION_CONTEXT(
  'core data for automotive mechanical design processes');
#3 = SHAPE_DEFINITION_REPRESENTATION(#4,#10);
#4 = PRODUCT_DEFINITION_SHAPE('','',#5);
#5 = PRODUCT_DEFINITION('design','',#6,#9);
#6 = PRODUCT_DEFINITION_FORMATION('','',#7);
#7 = PRODUCT('COMPOUND','COMPOUND','',(#8));
#8 = PRODUCT_CONTEXT('',#2,'mechanical');
#9 = PRODUCT_DEFINITION_CONTEXT('part definition',#2,'design');
#10 = ADVANCED_BREP_SHAPE_REPRESENTATION('',(#11,#15),#414);
#11 = AXIS2_PLACEMENT_3D('',#12,#13,#14);
#12 = CARTESIAN_POINT('',(0.,0.,0.));
#13 = DIRECTION('',(0.,0.,1.));
#14 = DIRECTION('',(1.,0.,-0.));
#15 = MANIFOLD_SOLID_BREP('',#16);
#16 = CLOSED_SHELL('',(#17,#233,#286,#320,#355,#410));
#17 = ADVANCED_FACE('',(#18),#32,.T.);
#18 = FACE_BOUND('',#19,.F.);
#19 = EDGE_LOOP('',(#20,#50,#205,#206));
#20 = ORIENTED_EDGE('',*,*,#21,.T.);
#21 = EDGE_CURVE('',#22,#24,#26,.T.);
#22 = VERTEX_POINT('',#23);
#23 = CARTESIAN_POINT('',(7.,0.,0.4));
#24 = VERTEX_POINT('',#25);
#25 = CARTESIAN_POINT('',(7.,0.,13.));
#26 = SEAM_CURVE('',#27,(#31,#43),.PCURVE_S1.);
#27 = LINE('',#28,#29);
#28 = CARTESIAN_POINT('',(7.,0.,0.));
#29 = VECTOR('',#30,1.);
#30 = DIRECTION('',(0.,0.,1.));
#31 = PCURVE('',#32,#37);
#32 = CYLINDRICAL_SURFACE('',#33,7.);
#33 = AXIS2_PLACEMENT_3D('',#34,#35,#36);
#34 = CARTESIAN_POINT('',(0.,0.,0.));
#35 = DIRECTION('',(-0.,-0.,-1.));
#36 = DIRECTION('',(1.,0.,0.));
#37 = DEFINITIONAL_REPRESENTATION('',(#38),#42);
#38 = LINE('',#39,#40);
#39 = CARTESIAN_POINT('',(-0.,0.));
#40 = VECTOR('',#41,1.);
#41 = DIRECTION('',(-0.,-1.));
#42 = ( GEOMETRIC_REPRESENTATION_CONTEXT(2) 
PARAMETRIC_REPRESENTATION_CONTEXT() REPRESENTATION_CONTEXT('2D SPACE',''
  ) );
#43 = PCURVE('',#32,#44);
#44 = DEFINITIONAL_REPRESENTATION('',(#45),#49);
#45 = LINE('',#46,#47);
#46 = CARTESIAN_POINT('',(-6.28318530718,0.));
#47 = VECTOR('',#48,1.);
#48 = DIRECTION('',(-0.,-1.));
#49 = ( GEOMETRIC_REPRESENTATION_CONTEXT(2) 
PARAMETRIC_REPRESENTATION_CONTEXT() REPRESENTATION_CONTEXT('2D SPACE',''
  ) );
#50 = ORIENTED_EDGE('',*,*,#51,.T.);
#51 = EDGE_CURVE('',#24,#24,#52,.T.);
#52 = SURFACE_CURVE('',#53,(#58,#65),.PCURVE_S1.);
#53 = CIRCLE('',#54,7.);
#54 = AXIS2_PLACEMENT_3D('',#55,#56,#57);
#55 = CARTESIAN_POINT('',(0.,0.,13.));
#56 = DIRECTION('',(0.,0.,1.));
#57 = DIRECTION('',(1.,0.,0.));
#58 = PCURVE('',#32,#59);
#59 = DEFINITIONAL_REPRESENTATION('',(#60),#64);
#60 = LINE('',#61,#62);
#61 = CARTESIAN_POINT('',(-0.,-13.));
#62 = VECTOR('',#63,1.);
#63 = DIRECTION('',(-1.,0.));
#64 = ( GEOMETRIC_REPRESENTATION_CONTEXT(2) 
PARAMETRIC_REPRESENTATION_CONTEXT() REPRESENTATION_CONTEXT('2D SPACE',''
  ) );
#65 = PCURVE('',#66,#102);
#66 = ( BOUNDED_SURFACE() B_SPLINE_SURFACE(2,2,(
    (#67,#68,#69,#70,#71)
    ,(#72,#73,#74,#75,#76)
    ,(#77,#78,#79,#80,#81)
    ,(#82,#83,#84,#85,#86)
    ,(#87,#88,#89,#90,#91)
    ,(#92,#93,#94,#95,#96)
    ,(#97,#98,#99,#100,#101
)),.UNSPECIFIED.,.T.,.F.,.F.) B_SPLINE_SURFACE_WITH_KNOTS((1,2,2,2,2,1),
  (3,2,3),(-2.094395102393,0.,2.094395102393,4.188790204786,
    6.28318530718,8.377580409573),(-1.570796326795,0.,1.570796326795),
.UNSPECIFIED.) GEOMETRIC_REPRESENTATION_ITEM() RATIONAL_B_SPLINE_SURFACE
((
    (1.,0.707106781187,1.,0.707106781187,1.)
    ,(0.5,0.353553390593,0.5,0.353553390593,0.5)
    ,(1.,0.707106781187,1.,0.707106781187,1.)
    ,(0.5,0.353553390593,0.5,0.353553390593,0.5)
    ,(1.,0.707106781187,1.,0.707106781187,1.)
    ,(0.5,0.353553390593,0.5,0.353553390593,0.5)
,(1.,0.707106781187,1.,0.707106781187,1.
))) REPRESENTATION_ITEM('') SURFACE() );
#67 = CARTESIAN_POINT('',(4.286263797016E-16,0.,11.));
#68 = CARTESIAN_POINT('',(7.,0.,11.));
#69 = CARTESIAN_POINT('',(7.,0.,13.));
#70 = CARTESIAN_POINT('',(7.,0.,15.));
#71 = CARTESIAN_POINT('',(4.286263797016E-16,0.,15.));
#72 = CARTESIAN_POINT('',(4.286263797016E-16,7.424026671074E-16,11.));
#73 = CARTESIAN_POINT('',(7.,12.124355652982,11.));
#74 = CARTESIAN_POINT('',(7.,12.124355652982,13.));
#75 = CARTESIAN_POINT('',(7.,12.124355652982,15.));
#76 = CARTESIAN_POINT('',(4.286263797016E-16,7.424026671074E-16,15.));
#77 = CARTESIAN_POINT('',(-2.143131898508E-16,3.712013335537E-16,11.));
#78 = CARTESIAN_POINT('',(-3.5,6.062177826491,11.));
#79 = CARTESIAN_POINT('',(-3.5,6.062177826491,13.));
#80 = CARTESIAN_POINT('',(-3.5,6.062177826491,15.));
#81 = CARTESIAN_POINT('',(-2.143131898508E-16,3.712013335537E-16,15.));
#82 = CARTESIAN_POINT('',(-8.572527594031E-16,1.049831847863E-31,11.));
#83 = CARTESIAN_POINT('',(-14.,1.714505518806E-15,11.));
#84 = CARTESIAN_POINT('',(-14.,1.714505518806E-15,13.));
#85 = CARTESIAN_POINT('',(-14.,1.714505518806E-15,15.));
#86 = CARTESIAN_POINT('',(-8.572527594031E-16,1.049831847863E-31,15.));
#87 = CARTESIAN_POINT('',(-2.143131898508E-16,-3.712013335537E-16,11.));
#88 = CARTESIAN_POINT('',(-3.5,-6.062177826491,11.));
#89 = CARTESIAN_POINT('',(-3.5,-6.062177826491,13.));
#90 = CARTESIAN_POINT('',(-3.5,-6.062177826491,15.));
#91 = CARTESIAN_POINT('',(-2.143131898508E-16,-3.712013335537E-16,15.));
#92 = CARTESIAN_POINT('',(4.286263797016E-16,-7.424026671074E-16,11.));
#93 = CARTESIAN_POINT('',(7.,-12.12435565298,11.));
#94 = CARTESIAN_POINT('',(7.,-12.12435565298,13.));
#95 = CARTESIAN_POINT('',(7.,-12.12435565298,15.));
#96 = CARTESIAN_POINT('',(4.286263797016E-16,-7.424026671074E-16,15.));
#97 = CARTESIAN_POINT('',(4.286263797016E-16,0.,11.));
#98 = CARTESIAN_POINT('',(7.,0.,11.));
#99 = CARTESIAN_POINT('',(7.,0.,13.));
#100 = CARTESIAN_POINT('',(7.,0.,15.));
#101 = CARTESIAN_POINT('',(4.286263797016E-16,0.,15.));
#102 = DEFINITIONAL_REPRESENTATION('',(#103),#204);
#103 = B_SPLINE_CURVE_WITH_KNOTS('',8,(#104,#105,#106,#107,#108,#109,
    #110,#111,#112,#113,#114,#115,#116,#117,#118,#119,#120,#121,#122,
    #123,#124,#125,#126,#127,#128,#129,#130,#131,#132,#133,#134,#135,
    #136,#137,#138,#139,#140,#141,#142,#143,#144,#145,#146,#147,#148,
    #149,#150,#151,#152,#153,#154,#155,#156,#157,#158,#159,#160,#161,
    #162,#163,#164,#165,#166,#167,#168,#169,#170,#171,#172,#173,#174,
    #175,#176,#177,#178,#179,#180,#181,#182,#183,#184,#185,#186,#187,
    #188,#189,#190,#191,#192,#193,#194,#195,#196,#197,#198,#199,#200,
    #201,#202,#203),.UNSPECIFIED.,.F.,.F.,(9,7,7,7,7,7,7,7,7,7,7,7,7,7,9
    ),(0.,0.785398163397,1.47262155637,2.073942025221,2.090384381792,
    2.094478913945,2.6180672131,3.53434673662,3.87795155794,
    4.178605776595,4.186826790386,4.190921240614,4.713987257255,
    5.498586282217,6.28318530718),.UNSPECIFIED.);
#104 = CARTESIAN_POINT('',(0.,-2.194514893985E-16));
#105 = CARTESIAN_POINT('',(0.118712885952,1.227820873154E-15));
#106 = CARTESIAN_POINT('',(0.229735773859,3.567459704709E-15));
#107 = CARTESIAN_POINT('',(0.334811884451,-7.645745352558E-15));
#108 = CARTESIAN_POINT('',(0.435211478492,9.418418075508E-15));
#109 = CARTESIAN_POINT('',(0.531959283315,-1.305586926751E-14));
#110 = CARTESIAN_POINT('',(0.625912641248,1.696247081894E-14));
#111 = CARTESIAN_POINT('',(0.71782848803,-4.629096130395E-15));
#112 = CARTESIAN_POINT('',(0.887661954866,1.686277369474E-15));
#113 = CARTESIAN_POINT('',(0.965893195232,-4.768958829852E-15));
#114 = CARTESIAN_POINT('',(1.043568844205,2.296336910569E-15));
#115 = CARTESIAN_POINT('',(1.121124558727,2.206189100726E-15));
#116 = CARTESIAN_POINT('',(1.198986738792,-1.818122009339E-15));
#117 = CARTESIAN_POINT('',(1.277590819201,1.027444243138E-15));
#118 = CARTESIAN_POINT('',(1.357401278732,1.277369370151E-15));
#119 = CARTESIAN_POINT('',(1.51028763865,3.182236021207E-15));
#120 = CARTESIAN_POINT('',(1.582958280057,-7.644757440828E-15));
#121 = CARTESIAN_POINT('',(1.657302902346,4.704312052654E-15));
#122 = CARTESIAN_POINT('',(1.733705278356,2.09434980808E-15));
#123 = CARTESIAN_POINT('',(1.812599581444,-4.655088512248E-15));
#124 = CARTESIAN_POINT('',(1.894488238297,2.403960628784E-15));
#125 = CARTESIAN_POINT('',(1.979972503661,-3.576861490862E-15));
#126 = CARTESIAN_POINT('',(2.072263992887,3.899317319882E-16));
#127 = CARTESIAN_POINT('',(2.07472367349,4.149204223453E-16));
#128 = CARTESIAN_POINT('',(2.077186622543,9.956079366715E-17));
#129 = CARTESIAN_POINT('',(2.079652855709,-3.726853318625E-16));
#130 = CARTESIAN_POINT('',(2.082122388654,-8.183561320602E-16));
#131 = CARTESIAN_POINT('',(2.08459523704,-1.053989784742E-15));
#132 = CARTESIAN_POINT('',(2.087071416532,-8.961244677254E-16));
#133 = CARTESIAN_POINT('',(2.090168405888,1.609479036889E-15));
#134 = CARTESIAN_POINT('',(2.090786062175,-4.334206484483E-15));
#135 = CARTESIAN_POINT('',(2.091403950141,-2.003972900978E-15));
#136 = CARTESIAN_POINT('',(2.092022039284,1.352493091176E-15));
#137 = CARTESIAN_POINT('',(2.092640316736,-1.120914894769E-16));
#138 = CARTESIAN_POINT('',(2.093258809998,-2.194396358299E-15));
#139 = CARTESIAN_POINT('',(2.093877545761,2.02346870512E-15));
#140 = CARTESIAN_POINT('',(2.173632956321,-2.526229055148E-15));
#141 = CARTESIAN_POINT('',(2.249352325323,6.142301808413E-15));
#142 = CARTESIAN_POINT('',(2.322170934964,-1.10154040656E-14));
#143 = CARTESIAN_POINT('',(2.392511878954,-2.363807208873E-16));
#144 = CARTESIAN_POINT('',(2.460734516387,1.032317239169E-14));
#145 = CARTESIAN_POINT('',(2.527152023594,-7.5682022637E-15));
#146 = CARTESIAN_POINT('',(2.592042334463,1.576757096789E-16));
#147 = CARTESIAN_POINT('',(2.766985016132,1.408186813636E-15));
#148 = CARTESIAN_POINT('',(2.874408174921,-6.712627376831E-15));
#149 = CARTESIAN_POINT('',(2.979279160782,9.439777570954E-15));
#150 = CARTESIAN_POINT('',(3.082709561397,-3.838335346006E-15));
#151 = CARTESIAN_POINT('',(3.185712028521,-9.857364507767E-15));
#152 = CARTESIAN_POINT('',(3.289278235996,1.378648994004E-14));
#153 = CARTESIAN_POINT('',(3.394448945963,-7.352028212734E-15));
#154 = CARTESIAN_POINT('',(3.542925138998,-1.087412709486E-15));
#155 = CARTESIAN_POINT('',(3.583814081576,6.851512345384E-16));
#156 = CARTESIAN_POINT('',(3.625162113685,4.449605111731E-16));
#157 = CARTESIAN_POINT('',(3.667036231623,-9.220933860796E-17));
#158 = CARTESIAN_POINT('',(3.709507570797,3.805350248846E-16));
#159 = CARTESIAN_POINT('',(3.752652463756,4.966139703563E-16));
#160 = CARTESIAN_POINT('',(3.796553761126,-1.542919847231E-15));
#161 = CARTESIAN_POINT('',(3.880457487863,-4.311251042684E-16));
#162 = CARTESIAN_POINT('',(3.920261329836,3.816187227019E-15));
#163 = CARTESIAN_POINT('',(3.960774866057,-3.004482299633E-15));
#164 = CARTESIAN_POINT('',(4.002063854296,-6.810387231535E-15));
#165 = CARTESIAN_POINT('',(4.044199663654,-8.223593760658E-16));
#166 = CARTESIAN_POINT('',(4.087260373161,4.231826918265E-15));
#167 = CARTESIAN_POINT('',(4.131332190748,-4.379109996541E-15));
#168 = CARTESIAN_POINT('',(4.177746555962,-2.115913142948E-15));
#169 = CARTESIAN_POINT('',(4.178982747146,-2.737541268338E-15));
#170 = CARTESIAN_POINT('',(4.180219768119,-2.47808764271E-15));
#171 = CARTESIAN_POINT('',(4.181457620857,-1.771031228994E-15));
#172 = CARTESIAN_POINT('',(4.182696307341,-1.049850990122E-15));
#173 = CARTESIAN_POINT('',(4.183935829548,-7.480258890267E-16));
#174 = CARTESIAN_POINT('',(4.185176189458,-1.299034888638E-15));
#175 = CARTESIAN_POINT('',(4.187035528154,1.44355333686E-14));
#176 = CARTESIAN_POINT('',(4.187654194568,-4.741390671499E-14));
#177 = CARTESIAN_POINT('',(4.188271899417,7.42976746854E-14));
#178 = CARTESIAN_POINT('',(4.188891980972,-8.067908637054E-14));
#179 = CARTESIAN_POINT('',(4.189510637807,5.003443636512E-14));
#180 = CARTESIAN_POINT('',(4.190128928167,-1.53421282202E-14));
#181 = CARTESIAN_POINT('',(4.190747372146,3.139499727655E-16));
#182 = CARTESIAN_POINT('',(4.270329772695,2.346601326544E-15));
#183 = CARTESIAN_POINT('',(4.345895818637,-1.042405893522E-14));
#184 = CARTESIAN_POINT('',(4.418576626555,8.195512884485E-15));
#185 = CARTESIAN_POINT('',(4.488792770349,-3.395778989204E-15));
#186 = CARTESIAN_POINT('',(4.556901623575,-9.6198132473E-15));
#187 = CARTESIAN_POINT('',(4.623214747359,1.449228520585E-14));
#188 = CARTESIAN_POINT('',(4.688008743262,-7.880190866205E-15));
#189 = CARTESIAN_POINT('',(4.846824109637,-3.928856149604E-15));
#190 = CARTESIAN_POINT('',(4.939260670629,1.399680714249E-14));
#191 = CARTESIAN_POINT('',(5.029692153993,-2.155274432227E-14));
#192 = CARTESIAN_POINT('',(5.118837281589,2.040155273459E-15));
#193 = CARTESIAN_POINT('',(5.207351219233,1.974904370034E-14));
#194 = CARTESIAN_POINT('',(5.29586538426,-2.169091705255E-14));
#195 = CARTESIAN_POINT('',(5.385021084347,7.328989482307E-15));
#196 = CARTESIAN_POINT('',(5.566011530424,3.040535099637E-15));
#197 = CARTESIAN_POINT('',(5.65784629235,-1.29713770306E-14));
#198 = CARTESIAN_POINT('',(5.751718263229,1.729325379788E-14));
#199 = CARTESIAN_POINT('',(5.848382481432,-1.033668256608E-14));
#200 = CARTESIAN_POINT('',(5.948694183666,-4.305600017659E-15));
#201 = CARTESIAN_POINT('',(6.053675472111,5.509158794486E-15));
#202 = CARTESIAN_POINT('',(6.164593210899,-4.995627623267E-15));
#203 = CARTESIAN_POINT('',(6.28318530718,-3.012397826302E-16));
#204 = ( GEOMETRIC_REPRESENTATION_CONTEXT(2) 
PARAMETRIC_REPRESENTATION_CONTEXT() REPRESENTATION_CONTEXT('2D SPACE',''
  ) );
#205 = ORIENTED_EDGE('',*,*,#21,.F.);
#206 = ORIENTED_EDGE('',*,*,#207,.F.);
#207 = EDGE_CURVE('',#22,#22,#208,.T.);
#208 = SURFACE_CURVE('',#209,(#214,#221),.PCURVE_S1.);
#209 = CIRCLE('',#210,7.);
#210 = AXIS2_PLACEMENT_3D('',#211,#212,#213);
#211 = CARTESIAN_POINT('',(0.,0.,0.4));
#212 = DIRECTION('',(0.,0.,1.));
#213 = DIRECTION('',(1.,0.,-0.));
#214 = PCURVE('',#32,#215);
#215 = DEFINITIONAL_REPRESENTATION('',(#216),#220);
#216 = LINE('',#217,#218);
#217 = CARTESIAN_POINT('',(-0.,-0.4));
#218 = VECTOR('',#219,1.);
#219 = DIRECTION('',(-1.,0.));
#220 = ( GEOMETRIC_REPRESENTATION_CONTEXT(2) 
PARAMETRIC_REPRESENTATION_CONTEXT() REPRESENTATION_CONTEXT('2D SPACE',''
  ) );
#221 = PCURVE('',#222,#227);
#222 = CONICAL_SURFACE('',#223,7.,0.785398163397);
#223 = AXIS2_PLACEMENT_3D('',#224,#225,#226);
#224 = CARTESIAN_POINT('',(0.,0.,0.4));
#225 = DIRECTION('',(0.,0.,1.));
#226 = DIRECTION('',(1.,0.,-0.));
#227 = DEFINITIONAL_REPRESENTATION('',(#228),#232);
#228 = LINE('',#229,#230);
#229 = CARTESIAN_POINT('',(0.,-0.));
#230 = VECTOR('',#231,1.);
#231 = DIRECTION('',(1.,-0.));
#232 = ( GEOMETRIC_REPRESENTATION_CONTEXT(2) 
PARAMETRIC_REPRESENTATION_CONTEXT() REPRESENTATION_CONTEXT('2D SPACE',''
  ) );
#233 = ADVANCED_FACE('',(#234),#222,.T.);
#234 = FACE_BOUND('',#235,.F.);
#235 = EDGE_LOOP('',(#236,#257,#258,#259));
#236 = ORIENTED_EDGE('',*,*,#237,.F.);
#237 = EDGE_CURVE('',#22,#238,#240,.T.);
#238 = VERTEX_POINT('',#239);
#239 = CARTESIAN_POINT('',(6.6,0.,0.));
#240 = SEAM_CURVE('',#241,(#245,#251),.PCURVE_S1.);
#241 = LINE('',#242,#243);
#242 = CARTESIAN_POINT('',(7.,0.,0.4));
#243 = VECTOR('',#244,1.);
#244 = DIRECTION('',(-0.707106781187,-0.,-0.707106781187));
#245 = PCURVE('',#222,#246);
#246 = DEFINITIONAL_REPRESENTATION('',(#247),#250);
#247 = B_SPLINE_CURVE_WITH_KNOTS('',1,(#248,#249),.UNSPECIFIED.,.F.,.F.,
  (2,2),(0.,0.565685424949),.PIECEWISE_BEZIER_KNOTS.);
#248 = CARTESIAN_POINT('',(0.,0.));
#249 = CARTESIAN_POINT('',(0.,-0.4));
#250 = ( GEOMETRIC_REPRESENTATION_CONTEXT(2) 
PARAMETRIC_REPRESENTATION_CONTEXT() REPRESENTATION_CONTEXT('2D SPACE',''
  ) );
#251 = PCURVE('',#222,#252);
#252 = DEFINITIONAL_REPRESENTATION('',(#253),#256);
#253 = B_SPLINE_CURVE_WITH_KNOTS('',1,(#254,#255),.UNSPECIFIED.,.F.,.F.,
  (2,2),(0.,0.565685424949),.PIECEWISE_BEZIER_KNOTS.);
#254 = CARTESIAN_POINT('',(6.28318530718,0.));
#255 = CARTESIAN_POINT('',(6.28318530718,-0.4));
#256 = ( GEOMETRIC_REPRESENTATION_CONTEXT(2) 
PARAMETRIC_REPRESENTATION_CONTEXT() REPRESENTATION_CONTEXT('2D SPACE',''
  ) );
#257 = ORIENTED_EDGE('',*,*,#207,.T.);
#258 = ORIENTED_EDGE('',*,*,#237,.T.);
#259 = ORIENTED_EDGE('',*,*,#260,.F.);
#260 = EDGE_CURVE('',#238,#238,#261,.T.);
#261 = SURFACE_CURVE('',#262,(#267,#274),.PCURVE_S1.);
#262 = CIRCLE('',#263,6.6);
#263 = AXIS2_PLACEMENT_3D('',#264,#265,#266);
#264 = CARTESIAN_POINT('',(0.,0.,0.));
#265 = DIRECTION('',(0.,0.,1.));
#266 = DIRECTION('',(1.,0.,-0.));
#267 = PCURVE('',#222,#268);
#268 = DEFINITIONAL_REPRESENTATION('',(#269),#273);
#269 = LINE('',#270,#271);
#270 = CARTESIAN_POINT('',(0.,-0.4));
#271 = VECTOR('',#272,1.);
#272 = DIRECTION('',(1.,-0.));
#273 = ( GEOMETRIC_REPRESENTATION_CONTEXT(2) 
PARAMETRIC_REPRESENTATION_CONTEXT() REPRESENTATION_CONTEXT('2D SPACE',''
  ) );
#274 = PCURVE('',#275,#280);
#275 = PLANE('',#276);
#276 = AXIS2_PLACEMENT_3D('',#277,#278,#279);
#277 = CARTESIAN_POINT('',(-1.953485903628E-16,4.9564344165E-16,0.));
#278 = DIRECTION('',(0.,0.,1.));
#279 = DIRECTION('',(1.,0.,0.));
#280 = DEFINITIONAL_REPRESENTATION('',(#281),#285);
#281 = CIRCLE('',#282,6.6);
#282 = AXIS2_PLACEMENT_2D('',#283,#284);
#283 = CARTESIAN_POINT('',(1.953485903628E-16,-4.9564344165E-16));
#284 = DIRECTION('',(1.,0.));
#285 = ( GEOMETRIC_REPRESENTATION_CONTEXT(2) 
PARAMETRIC_REPRESENTATION_CONTEXT() REPRESENTATION_CONTEXT('2D SPACE',''
  ) );
#286 = ADVANCED_FACE('',(#287),#66,.T.);
#287 = FACE_BOUND('',#288,.T.);
#288 = EDGE_LOOP('',(#289,#318,#319));
#289 = ORIENTED_EDGE('',*,*,#290,.T.);
#290 = EDGE_CURVE('',#24,#291,#293,.T.);
#291 = VERTEX_POINT('',#292);
#292 = CARTESIAN_POINT('',(4.286263797016E-16,-1.049831847863E-31,15.));
#293 = SEAM_CURVE('',#294,(#300,#309),.PCURVE_S1.);
#294 = ( BOUNDED_CURVE() B_SPLINE_CURVE(2,(#295,#296,#297,#298,#299),
.UNSPECIFIED.,.F.,.F.) B_SPLINE_CURVE_WITH_KNOTS((3,2,3),(4.712388980385
,6.28318530718,7.853981633974),.PIECEWISE_BEZIER_KNOTS.) CURVE() 
GEOMETRIC_REPRESENTATION_ITEM() RATIONAL_B_SPLINE_CURVE((1.,
0.707106781187,1.,0.707106781187,1.)) REPRESENTATION_ITEM('') );
#295 = CARTESIAN_POINT('',(-1.285879139105E-15,3.14949554359E-31,11.));
#296 = CARTESIAN_POINT('',(7.,-1.714505518806E-15,11.));
#297 = CARTESIAN_POINT('',(7.,-1.714505518806E-15,13.));
#298 = CARTESIAN_POINT('',(7.,-1.714505518806E-15,15.));
#299 = CARTESIAN_POINT('',(2.143131898508E-15,-5.249159239317E-31,15.));
#300 = PCURVE('',#66,#301);
#301 = DEFINITIONAL_REPRESENTATION('',(#302),#308);
#302 = B_SPLINE_CURVE_WITH_KNOTS('',2,(#303,#304,#305,#306,#307),
  .UNSPECIFIED.,.F.,.F.,(3,2,3),(4.712388980385,6.28318530718,
    7.853981633974),.PIECEWISE_BEZIER_KNOTS.);
#303 = CARTESIAN_POINT('',(6.28318530718,-1.570796326795));
#304 = CARTESIAN_POINT('',(6.28318530718,-0.785398163397));
#305 = CARTESIAN_POINT('',(6.28318530718,-2.720481184601E-16));
#306 = CARTESIAN_POINT('',(6.28318530718,0.785398163397));
#307 = CARTESIAN_POINT('',(6.28318530718,1.570796326795));
#308 = ( GEOMETRIC_REPRESENTATION_CONTEXT(2) 
PARAMETRIC_REPRESENTATION_CONTEXT() REPRESENTATION_CONTEXT('2D SPACE',''
  ) );
#309 = PCURVE('',#66,#310);
#310 = DEFINITIONAL_REPRESENTATION('',(#311),#317);
#311 = B_SPLINE_CURVE_WITH_KNOTS('',2,(#312,#313,#314,#315,#316),
  .UNSPECIFIED.,.F.,.F.,(3,2,3),(4.712388980385,6.28318530718,
    7.853981633974),.PIECEWISE_BEZIER_KNOTS.);
#312 = CARTESIAN_POINT('',(0.,-1.570796326795));
#313 = CARTESIAN_POINT('',(8.881784197001E-16,-0.785398163397));
#314 = CARTESIAN_POINT('',(0.,-2.720481184601E-16));
#315 = CARTESIAN_POINT('',(8.881784197001E-16,0.785398163397));
#316 = CARTESIAN_POINT('',(0.,1.570796326795));
#317 = ( GEOMETRIC_REPRESENTATION_CONTEXT(2) 
PARAMETRIC_REPRESENTATION_CONTEXT() REPRESENTATION_CONTEXT('2D SPACE',''
  ) );
#318 = ORIENTED_EDGE('',*,*,#290,.F.);
#319 = ORIENTED_EDGE('',*,*,#51,.T.);
#320 = ADVANCED_FACE('',(#321,#324),#275,.F.);
#321 = FACE_BOUND('',#322,.F.);
#322 = EDGE_LOOP('',(#323));
#323 = ORIENTED_EDGE('',*,*,#260,.T.);
#324 = FACE_BOUND('',#325,.F.);
#325 = EDGE_LOOP('',(#326));
#326 = ORIENTED_EDGE('',*,*,#327,.F.);
#327 = EDGE_CURVE('',#328,#328,#330,.T.);
#328 = VERTEX_POINT('',#329);
#329 = CARTESIAN_POINT('',(-2.2,2.95441701699E-16,0.));
#330 = SURFACE_CURVE('',#331,(#336,#343),.PCURVE_S1.);
#331 = CIRCLE('',#332,2.2);
#332 = AXIS2_PLACEMENT_3D('',#333,#334,#335);
#333 = CARTESIAN_POINT('',(-2.6645352591E-15,-2.434028899259E-16,0.));
#334 = DIRECTION('',(0.,0.,1.));
#335 = DIRECTION('',(-1.,-0.,0.));
#336 = PCURVE('',#275,#337);
#337 = DEFINITIONAL_REPRESENTATION('',(#338),#342);
#338 = CIRCLE('',#339,2.2);
#339 = AXIS2_PLACEMENT_2D('',#340,#341);
#340 = CARTESIAN_POINT('',(-2.469186668738E-15,-7.390463315759E-16));
#341 = DIRECTION('',(-1.,0.));
#342 = ( GEOMETRIC_REPRESENTATION_CONTEXT(2) 
PARAMETRIC_REPRESENTATION_CONTEXT() REPRESENTATION_CONTEXT('2D SPACE',''
  ) );
#343 = PCURVE('',#344,#349);
#344 = CYLINDRICAL_SURFACE('',#345,2.2);
#345 = AXIS2_PLACEMENT_3D('',#346,#347,#348);
#346 = CARTESIAN_POINT('',(-2.6645352591E-15,-2.434028899259E-16,-10.));
#347 = DIRECTION('',(0.,0.,1.));
#348 = DIRECTION('',(-1.,-0.,0.));
#349 = DEFINITIONAL_REPRESENTATION('',(#350),#354);
#350 = LINE('',#351,#352);
#351 = CARTESIAN_POINT('',(0.,10.));
#352 = VECTOR('',#353,1.);
#353 = DIRECTION('',(1.,0.));
#354 = ( GEOMETRIC_REPRESENTATION_CONTEXT(2) 
PARAMETRIC_REPRESENTATION_CONTEXT() REPRESENTATION_CONTEXT('2D SPACE',''
  ) );
#355 = ADVANCED_FACE('',(#356),#344,.F.);
#356 = FACE_BOUND('',#357,.F.);
#357 = EDGE_LOOP('',(#358,#381,#408,#409));
#358 = ORIENTED_EDGE('',*,*,#359,.T.);
#359 = EDGE_CURVE('',#328,#360,#362,.T.);
#360 = VERTEX_POINT('',#361);
#361 = CARTESIAN_POINT('',(-2.2,2.95441701699E-16,10.));
#362 = SEAM_CURVE('',#363,(#367,#374),.PCURVE_S1.);
#363 = LINE('',#364,#365);
#364 = CARTESIAN_POINT('',(-2.2,2.95441701699E-16,-10.));
#365 = VECTOR('',#366,1.);
#366 = DIRECTION('',(0.,0.,1.));
#367 = PCURVE('',#344,#368);
#368 = DEFINITIONAL_REPRESENTATION('',(#369),#373);
#369 = LINE('',#370,#371);
#370 = CARTESIAN_POINT('',(6.28318530718,-0.));
#371 = VECTOR('',#372,1.);
#372 = DIRECTION('',(0.,1.));
#373 = ( GEOMETRIC_REPRESENTATION_CONTEXT(2) 
PARAMETRIC_REPRESENTATION_CONTEXT() REPRESENTATION_CONTEXT('2D SPACE',''
  ) );
#374 = PCURVE('',#344,#375);
#375 = DEFINITIONAL_REPRESENTATION('',(#376),#380);
#376 = LINE('',#377,#378);
#377 = CARTESIAN_POINT('',(0.,-0.));
#378 = VECTOR('',#379,1.);
#379 = DIRECTION('',(0.,1.));
#380 = ( GEOMETRIC_REPRESENTATION_CONTEXT(2) 
PARAMETRIC_REPRESENTATION_CONTEXT() REPRESENTATION_CONTEXT('2D SPACE',''
  ) );
#381 = ORIENTED_EDGE('',*,*,#382,.F.);
#382 = EDGE_CURVE('',#360,#360,#383,.T.);
#383 = SURFACE_CURVE('',#384,(#389,#396),.PCURVE_S1.);
#384 = CIRCLE('',#385,2.2);
#385 = AXIS2_PLACEMENT_3D('',#386,#387,#388);
#386 = CARTESIAN_POINT('',(-2.6645352591E-15,-2.434028899259E-16,10.));
#387 = DIRECTION('',(0.,0.,1.));
#388 = DIRECTION('',(-1.,-0.,0.));
#389 = PCURVE('',#344,#390);
#390 = DEFINITIONAL_REPRESENTATION('',(#391),#395);
#391 = LINE('',#392,#393);
#392 = CARTESIAN_POINT('',(0.,20.));
#393 = VECTOR('',#394,1.);
#394 = DIRECTION('',(1.,0.));
#395 = ( GEOMETRIC_REPRESENTATION_CONTEXT(2) 
PARAMETRIC_REPRESENTATION_CONTEXT() REPRESENTATION_CONTEXT('2D SPACE',''
  ) );
#396 = PCURVE('',#397,#402);
#397 = PLANE('',#398);
#398 = AXIS2_PLACEMENT_3D('',#399,#400,#401);
#399 = CARTESIAN_POINT('',(-2.6645352591E-15,-2.434028899259E-16,10.));
#400 = DIRECTION('',(0.,0.,1.));
#401 = DIRECTION('',(-1.,-0.,0.));
#402 = DEFINITIONAL_REPRESENTATION('',(#403),#407);
#403 = CIRCLE('',#404,2.2);
#404 = AXIS2_PLACEMENT_2D('',#405,#406);
#405 = CARTESIAN_POINT('',(0.,0.));
#406 = DIRECTION('',(1.,0.));
#407 = ( GEOMETRIC_REPRESENTATION_CONTEXT(2) 
PARAMETRIC_REPRESENTATION_CONTEXT() REPRESENTATION_CONTEXT('2D SPACE',''
  ) );
#408 = ORIENTED_EDGE('',*,*,#359,.F.);
#409 = ORIENTED_EDGE('',*,*,#327,.T.);
#410 = ADVANCED_FACE('',(#411),#397,.F.);
#411 = FACE_BOUND('',#412,.F.);
#412 = EDGE_LOOP('',(#413));
#413 = ORIENTED_EDGE('',*,*,#382,.T.);
#414 = ( GEOMETRIC_REPRESENTATION_CONTEXT(3) 
GLOBAL_UNCERTAINTY_ASSIGNED_CONTEXT((#418)) GLOBAL_UNIT_ASSIGNED_CONTEXT
((#415,#416,#417)) REPRESENTATION_CONTEXT('Context #1',
  '3D Context with UNIT and UNCERTAINTY') );
#415 = ( LENGTH_UNIT() NAMED_UNIT(*) SI_UNIT(.MILLI.,.METRE.) );
#416 = ( NAMED_UNIT(*) PLANE_ANGLE_UNIT() SI_UNIT($,.RADIAN.) );
#417 = ( NAMED_UNIT(*) SI_UNIT($,.STERADIAN.) SOLID_ANGLE_UNIT() );
#418 = UNCERTAINTY_MEASURE_WITH_UNIT(LENGTH_MEASURE(2.E-07),#415,
  'distance_accuracy_value','confusion accuracy');
#419 = PRODUCT_RELATED_PRODUCT_CATEGORY('part',$,(#7));
ENDSEC;
END-ISO-10303-21;
